<?xml version="1.0" encoding="utf-8"?>
<!-- Generator: Adobe Illustrator 16.0.0, SVG Export Plug-In . SVG Version: 6.00 Build 0)  -->
<!DOCTYPE svg PUBLIC "-//W3C//DTD SVG 1.1//EN" "http://www.w3.org/Graphics/SVG/1.1/DTD/svg11.dtd">
<svg version="1.1" id="Layer_2" xmlns="http://www.w3.org/2000/svg" xmlns:xlink="http://www.w3.org/1999/xlink" x="0px" y="0px"
	 width="1499px" height="1030px" viewBox="0 0 1499 1030" xml:space="preserve">
<path d="M37.5,41.273v954h1424v-954H37.5z M1406.361,518.773c-9.432,21.59-177.393,390-657.123,390
	c-509.47,0-637.597-368.41-656.159-390h-0.87c0,0,0.088-0.209,0.263-0.613c-0.297-0.246-0.561-0.387-0.785-0.387h0.953
	c9.431-21.59,177.391-390,657.122-390c509.472,0,637.597,368.41,656.159,390h0.872c0,0-0.089,0.211-0.264,0.613
	c0.297,0.248,0.56,0.387,0.785,0.387H1406.361z"/>
</svg>
